/* XPM */
static char * collectable_xpm[] = {
"50 50 27 1",
" 	c #505050",
".	c #404040",
"+	c #303030",
"@	c #101010",
"#	c #202020",
"$	c #606060",
"%	c #804000",
"&	c #A0A0A0",
"*	c #FFFFFF",
"=	c #D0D0D0",
"-	c #603000",
";	c #B0B0B0",
">	c #E0E0E0",
",	c #C0C0C0",
"'	c #909090",
")	c #808080",
"!	c #000000",
"~	c #707070",
"{	c #FFC0C0",
"]	c #FF8080",
"^	c #C06060",
"/	c #800000",
"(	c #E00000",
"_	c #E07070",
":	c #A00000",
"<	c #C00000",
"[	c #A05050",
"  ....++@++#..@@#@@.  +@@@@+++...+##+$$..@@@@##+..",
"  ....++@++#..@@#@@.  +@@@@+++...+##+$$..@@@@##+..",
"..+..+###@@...++#..+...$$@@#+++++.@@$..  .##@@@+..",
"..+###@@@##$  ..+.....+..++#@@@##@@@+  ...++#++#++",
"..+###@@@##$  ..+.....+..++#@@@##@@@+  ...++#++#++",
"++#@@$..@## $$...++.+++  ++###@@@#@@#+++++..@##@##",
"@@#$$.  .###....+..+.....##@@@+  .+++##++.++@#####",
"@@#$$.  .###....+..+.....##@@@+  .+++##++.++@#####",
"##+..$...@@###++.  ...#@@@@@++ .. .. ..###@@#..+++",
"##...+..+..@++##......@@@##@     ...$++@@#@@ .. ..",
"##...+..+..@++##......@@@##@     ...$++@@#@@ .. ..",
"++#........#@@###.. ..#@@@@.  $...  .$$..@@@.  ...",
"##@++.+++@@@@@...##.##@@@##+..+..+..$..++#.....+++",
"##@++.+++@@@@@...##.##@@@##+..+..+..$..++#.....+++",
"@@#@@+@@@##.++++.###@@#  ..#++.++.++###@@+..+###@@",
"@@#@@+@@@##.++++.###@@#  ..#++.++.++###@@+..+###@@",
"++@###@@...+....+..###...  #@@+..@##@..@@@##@@@@$$",
"...##@@@+++.++++#@@#@@.  ..@###@@#@@.  ++#@@@@@#++",
"...##@@@+++.++++#@@#@@.  ..@###@@#@@.  ++#@@@@@#++",
"++...@###@@#@@##@@@@###....@@@###.$$.++..@##@@@#  ",
"$$ ..#@@@##@##@@@$$.++.##@@#@@@...  +..++#@@@##+..",
"$$ ..#@@@##@##@@@$$.++.##@@#@@@...  +..++#@@@##+..",
"  $.. @@#@@@@@## .. ..+$$++@###..$...##@@#@@+@@...",
"$$ .. ##@###@@## ++...+..###++@@@.  +@@@@@##@@@+..",
"$$ .. ##@###@@## ++...+%%%##++@@@.  +@@@@@##@@@+..",
"##.  #@@...+####...+..&%%%&+..#@@+..###@@@@@#@@#++",
"##.  #@@...+####...+.*=---;&..#@@+..###@@@@@#@@#++",
"@@###@  .++.##@@###.  *=>,&....@@###+++##@##@@@@##",
"##@.. ..$...++##@##+##')$.'.++.##@###++@@@##@##@##",
"##@.. ..$...++##@##+##')$.'.++.##@###++@@@##@##@##",
"@@#...  .  .++@@@@@#@@;)$.'.++.##@@!!!@##@@@#@@#@@",
"@@.  .  $  +..##.##@##;)$.' +++@@#!!!!!  .##@##@@@",
"@@.  .  $  +..##.##@##;)$.' +++@@!!!!!!  .##@##@@@",
"..#.....+  .++##...+##;&$.'+..#@!!!!!!$..+++#@@#@@",
".. ##.$$.$$+##@@.$$.##;&$.~#@@!!!!!!!  +++..@@@@##",
".. ##.$$.$$+##@@.$$.)==&&$.~~!!!!!!!.  +++..@@@@##",
"  .@@#.. +++@@@@.  ){**=&$$..~!!!!!+ $$.. ..+@@#++",
"..   @++.++.##@@#.)]{**{]^//..~!!!!+$..++.##@##+++",
"..   @++.++.##@@#)(_]{{]_^:::<<~!!!+$..++.##@##+++",
"..+..#@@#@@+@@###)[^_]]_^<<<((/~!!.. ..++#$$.##+..",
"..+..#@@#@@+@@###)[[^^^^(((////~!!.. ..++#$$.##+..",
"++.+++@@@###$$  .)/[[[[//////<:~!!##.  +++.. ++@..",
"@@#@@#@@#@@ ..++.):///:////<:::~!!@@+..##.  $++@@@",
"@@#@@#@@#@@ ..++.)//:///:::::<<~! @@+..##.  $++@@@",
"@@+##@@@#@@$....+!)///::::<<<<~!!.##@@@@@$++.++###",
"...  .##@##.  $$ !):::::(<<<<(~!!+@@#@@++.+++##@  ",
"...  .##@##.  $$ !!'<<<<<<(((~!!++@@#@@++.+++##@  ",
"$$   ...#@@+..  ..!!''(((((~~!!++.##@@@##@##@@@$..",
"..$.. ++@###++..+##!!!~~~~~!!!+..+@@@####@@@#@@.  ",
"..$.. ++@###++..+##@@!!!!!!!..+..+@@@####@@@#@@.  "};
