/* XPM */
static char * exit_open_xpm[] = {
"50 50 19 1",
" 	c #505050",
".	c #404040",
"+	c #303030",
"@	c #101010",
"#	c #202020",
"$	c #000000",
"%	c #606060",
"&	c #909090",
"*	c #707070",
"=	c #A0A0A0",
"-	c #808080",
";	c #90C0C0",
">	c #FFFFFF",
",	c #80FFFF",
"'	c #B0B0B0",
")	c #C0C0C0",
"!	c #00E0E0",
"~	c #00FFFF",
"{	c #C0FFFF",
"  ....++@++#..@@#@@.  $@@@@+$$...+##+%%..@@@@##+..",
"  ....++@++#..@@#@@.  $@@@@+$$...+##+%%..@@@@##+..",
"..+..+###@@...++$$$+$$&$$$$$**$++$$$%..  .##@@@+..",
"..+###@@@##%  $$=&&$++$&&..-$$+$$&==$  ...++#++#++",
"..+###@@@##%  $$=&&$++$&&..-$$+$$&==$  ...++#++#++",
"++#@@%..@## $$==&  -++ --  *..+-- &&=$$+++..@##@##",
"@@#%%.  .##$&&..-..*++ %%%%...+**.--.&&$$.++@#####",
"@@#%%.  .##$&&..-..*++ %%%%...+**.--.&&$$.++@#####",
"##+..%...@@$--++*++*  +==%%=++ **+**+--$$#@@#..+++",
"##...+..+..$**++%++%..#++..+##.%%+%%+**$$#@@ .. ..",
"##...+..+..$**++%++%..#++..+##.%%+%%+**$$#@@ .. ..",
"++#........$%%$$$## ++###++###+  #$$$%%$$@@@.  ...",
"##@++.+++@@@$$...$$#@@@++;;+@@@##$..%$$++#.....+++",
"##@++.+++@@@$$...$$#@@@++;;+@@@##$..%$$++#.....+++",
"@@#@@+@@@##.++++.##$++ ..##...+$$.++###@@+..+###@@",
"@@#@@+@@@##.++++.##$++ ..##...+$$.++###@@+..+###@@",
"++@###@@...+....+$$.  .##>>#  ...$##@..@@@##@@@@%%",
"...##@@@+++.++++#$$.  +$$,,$++ ..$@@.  ++#@@@@@#++",
"...##@@@+++.++++#$$.  +$$,,$++ ..$@@.  ++#@@@@@#++",
"++...@###@@#@@##@@@$...$$$$$.. $$.%%.++..@##@@@#  ",
"%% ..#@@@##@##@@@$$-##-##>>#--#--$  +..++#@@@##+..",
"%% ..#@@@##@##@@@$$-##-##>>#--#--$  +..++#@@@##+..",
"  %.. @@#@@@$$$$$..&..&..>>.&&.&&.$$$$$@@#@@+@@...",
"%% .. ##@$$$--===  .  .  ,,.  .   %%'==$$$##@@@+..",
"%% .. ##@$$$--===  .  .  ,,.  .   %%'==$$$##@@@+..",
"##.  #@@$=='))--=%% **%  ,,***%..*--&--==)$$$@@#++",
"##.  #@@$=='))--=%% **%  ,,***%..*--&--==)$$$@@#++",
"@@###$$$'==*  %%*!!~!!~~~,,~~~!~~!***  **-===$$@##",
"##@$$='')**!!!!!~,,!,,,>>{{>,,,!!,~~!!!~~*--=&&$##",
"##@$$='')**!!!!!~,,!,,,>>{{>,,,!!,~~!!!~~*--=&&$##",
"@@$))-***~~>>>>>,>>!>>>{{{{{{{>!!>,,>>>>>~***==&$$",
"@@$--=~~~>>>,,{{>>>>~~>>>{{{>>~>>{>>!>>>>>~~!==)$$",
"@@$--=~~~>>>,,{{>>>>~~>>>{{{>>~>>{>>!>>>>>~~!==)$$",
"..$==)!!~,,{>>>>>{{>>>~~~>>~~~>>>>>>>{{>>{>>~))&$$",
"..$--=!!,>>>>>{{,>>,>>>>>>>>>>,{{>{{>>>>>,>>!&&=$$",
"..$--=!!,>>>>>{{,>>,>>>>>>>>>>,{{>{{>>>>>,>>!&&=$$",
"  $==-~~~>>,>>>>>>>{{{>,,>>{>>>>>>>>>,,>>>>>~&&=$$",
"..$%%===,~~>>>>>,,,>>>>{{>>>,,>{{>,,>>>>>,,,-== $$",
"..$%%===,~~>>>>>,,,>>>>{{>>>,,>{{>,,>>>>>,,,-== $$",
"..$&&-==-==~!!~~!>>>>>,>>>>>>>>>>>,,,,,,,&''=.. $$",
"..$&&-==-==~!!~~!>>>>>,>>>>>>>>>>>,,,,,,,&''=.. $$",
"++$%%-%%)=='))---~~!~~!~~,,~!!!~~,--=))))=&& ...$$",
"@@#$$&&&-%%=--''=--'==-==''===---'))-==&&.%% ..$@@",
"@@#$$&&&-%%=--''=--'==-==''===---'))-==&&.%% ..$@@",
"@@+##$%%-&&*%%--%=='))=--))'--=))=%%-  %% ...$$###",
"...  .$$$%%-  %%*--%  %--  ---%   --.  ..$$$$##@  ",
"...  .$$$%%-  %%*--%  %--  ---%   --.  ..$$$$##@  ",
"%%   ...#$$$$$$$$**-  -%%  .%%.  .$$$$$$$@##@@@%..",
"..%.. ++@###++..+$$$$$$$$$$$$$$$$$@@@####@@@#@@.  ",
"..%.. ++@###++..+$$$$$$$$$$$$$$$$$@@@####@@@#@@.  "};
