/* XPM */
static char * PP0_xpm[] = {
"50 50 30 1",
" 	c #505050",
".	c #404040",
"+	c #303030",
"@	c #101010",
"#	c #202020",
"$	c #606060",
"%	c #000000",
"&	c #E04F23",
"*	c #FFEF76",
"=	c #60719F",
"-	c #222243",
";	c #061214",
">	c #FF8B0F",
",	c #F16A62",
"'	c #1D090C",
")	c #B94B57",
"!	c #000927",
"~	c #471F30",
"{	c #E0E2EA",
"]	c #132E4D",
"^	c #EA2743",
"/	c #FFC4A1",
"(	c #A7322B",
"_	c #A4104F",
":	c #68104C",
"<	c #2A1023",
"[	c #48131D",
"}	c #A2ABC6",
"|	c #ECFFE8",
"1	c #2F4577",
"  ....++@++#..@@#@@.  +@@@@+++...+##+$$..@@@@##+..",
"  ....++@++#..@@#%%%%%%@@@@+++...+##+$$..@@@@##+..",
"..+..+###@@...+%%&&*%==%%@@#+++++.@@$..  .##@@@+..",
"..+###@@@##$  %--%%&*%-==%+#@@@##@@@+  ...++#++#++",
"..+###@@@##$ %-----%&*%--=%#@@@##@@@+  ...++#++#++",
"++#@@$..@## %-------%&%---=%##@@@#@@#+++++..@##@##",
"@@#$$.  .###%-------%&*%--=%@@+  .+++##++.++@#####",
"@@#$$.  .##%---------%*%---=%@+  .+++##++.++@#####",
"##+..$...@@%;--------%&%---=%+ .. .. ..###@@#..+++",
"##...+..+..%;;-------%&%----=%   ...$++@@#@@ .. ..",
"##...+..+.%;;;;;-----%&%---==%   ...$++@@#@@ .. ..",
"++#.......%;;;;;;;;;;%&%=====%$...  .$$..@@@.  ...",
"##@++.+++@%%%%%%%%%%%&&>%%%%%%+..+..$..++#.....+++",
"##@++.+++@%&>>>>>>>>>&&>>>>>*%+..+..$..++#.....+++",
"@@#@@+@@@#%&>>>>%%%%%&&>%%%>*%.++.++###@@+..+###@@",
"@@#@@+@@@#%&&>>%,,%''%&%''%%*%.++.++###@@+..+###@@",
"++@###@@..%&&&>%,,,%%%&%%%)%>%+..@##@..@@@##@@@@$$",
"...##@@@++%%%%&>%,,%,%&%,%)%>%#@%%%%%%%%%#@@@@@#++",
"...##@@@++%!!!%&>%%,,%&%,,%>%%%%~~~~~~%%{%%@@@@#++",
"++...@###@%!]!!%&&>%%&&>%%>%=%%~~~~~~~~~%%{%@@@#  ",
"$$ ..#@@@%=!]]!!%%&&>&&>>>%]=%]%~~~~~~~~~~%{%##+..",
"$$ ..#@%%=]!]]!!%)%%%&&&%%%]=%]%%~~~~~~~~~~%{%#+..",
"  $.. %^^%]!!]]!%),,,%%%))%]]]]%^%~~~~%~~~~%{%@...",
"$$ .. %^^%]!!]]!!%,//////)%]]]]%^%~~~%(%~~~~%{%+..",
"$$ .. %^^^%]!!]]!%)/%%%%/%]]]]%%_^%~%(%~~~~~%{%+..",
"##.  #%^^^%]]!]]!!%,/////%]]]%_%_^%~%(%~~~~~~%{%++",
"##.  #%^^__%]!!]]!!%,,//%]]]]%_%:_^%(%~~~%~~~%{%++",
"@@###@%^__%_%]!!]]!!%%%%]]]]%^_%%_^%(%~~%(%~~%{%##",
"##@..%(%_%!_^%]!!!]]]]]]]]]%^^_%%:%(%~~%(%~~~~%{%#",
"##@..%((%.%_^^%%]!!]]]]]]]%^^_:%<%(((%~%(%~~~~%{%#",
"@@#..%([%%%:_^^^%%%!!!]]%%^^_::%<%(%%%%(%~~~~~%{%@",
"@@.  %([%=%:__^^^^^%%%%%^^__:%%<%(%[((%(%~~~~~%{%@",
"@@.  %(%==%::__^^^^^^____::%%[%<%(%%[%,%~~~~~~%}%@",
"..#..%%==% %%%%______:::%%%(([%<%(%~%,,%~~~~~~%}%@",
".. ##%==%|%%(((%%%%%%%%%(([[%%:%(%~~%%%%~~~~~~%}%#",
".. #%==%}{|%((((((((((([[%%%::^%(%~~%(%~~~~~~~%}%#",
"  .@%%%%%}{|%%%%%%%%%%%%%:::__^%(%<~%(%~~~~~~%}%++",
"..   @++.%}{|%______::::_____^_%%<<%(%~~~~~~~%=%++",
"..   @++.+%}{|%^^^^^___^^^^^^^_%'<<%(%~~~~~~~%=%++",
"..+..#@@#@%%}{|%^^^^^^^^^^^^^_:%''<%(%~~~~~<%=%+..",
"..+..#@@#@%_%}{|%^^^^^^^^^^__:%%%''<%<<<<<<<%1%+..",
"++.+++@@@#%%%%}{|%^^^^^^___::%(%.%'''<<<<<'%1%+@..",
"@@#@@#@@#@%([[%}{|%_____:::%%[(%. %%'''''%%%%++@@@",
"@@#@@#@@#@%([['%}{|%%%%%%%%'[[(%. @@%%%%%%% $++@@@",
"@@+##@@@#@%([''%%}{|%+.$$ %'[[(% .##@@@@@$++.++###",
"...  .##@#%[''%$ %}{%@$  ..%'[%+++@@#@@++.+++##@  ",
"...  .##@#%['%$$ .%%%@$  ..%'[%+++@@#@@++.+++##@  ",
"$$   ...#@%%%.  ...@##+++...%%.++.##@@@##@##@@@$..",
"..$.. ++@###++..+##@@@###+++..+..+@@@####@@@#@@.  ",
"..$.. ++@###++..+##@@@###+++..+..+@@@####@@@#@@.  "};
