/* XPM */
static char * trap2_xpm[] = {
"50 50 18 1",
" 	c #505050",
".	c #404040",
"+	c #303030",
"@	c #101010",
"#	c #202020",
"$	c #606060",
"%	c #595959",
"&	c #565656",
"*	c #2D2D2D",
"=	c #525252",
"-	c #3B3B3B",
";	c #535353",
">	c #5E5E5E",
",	c #212121",
"'	c #191919",
")	c #636363",
"!	c #0E0E0E",
"~	c #000000",
"  ....++@++#..@@#@@.  +@@@@+++...+##+$$..@@@@##+..",
"  ....++@++#..@@#@@.  +@@@@+++...+##+$$..@@@@##+..",
"..+..+###@@...++#..+...$$@@#+++++.@@$..  .##@@@+..",
"..+###@@@##$  ..+.....+..++#@@@##@@@+  ...++#++#++",
"..+###@@@##$  ..+.....+..++#@@@##@@@+  ...++#++#++",
"++#@@$..@## $$...++.+++  ++###@@@#@@#+++++..@##@##",
"@@#$$.  .###....+..+.....##@@@+  .+++##++.++@#####",
"@@#$$.  .###....+..+.....##@@@+  .+++##++.++@#####",
"##+..$...@@###++.  ...#@@@@@++ .. .. ..###@@#..+++",
"##...+..+..@++##......@@@##@     ...$++@@#@@ .. ..",
"##...+..+..@++##......@@@##@     ...$++@@#@@ .. ..",
"++#........#@@###.. ..#@@@@.  $...  .$$..@@@.  ...",
"##@++.+++@@@@@...##.##@@@##+..+..+..$..++#.....+++",
"##@++.+++@@@@@...##.##@@@##+..+..+..$..++#.....+++",
"@@#@@+@@@##.++++.###@@#  ..#++.++.++###@@+..+###@@",
"@@#@@+@@@##.++++.###@@#  ..#++.++.++###@@+..+###@@",
"++@###@@...+....+..###...  #@@+..@##@..@@@##@@@@$$",
"...##@@@+++.++++#@@#@@.  ..@###@@#@@.  ++#@@@@@#++",
"...##@@@+++.++++#@@#@@.  ..@###@@#@@.  ++#@@@@@#++",
"++...@###@@#@@##@@@@###....@@@###.$$.++..@##@@@#  ",
"$$ ..#@@@##@##@@@$$.++.##@@#@@@...  +..++#@@@##+..",
"$$ ..#@@@##@##@@@$$.++.##@@#@@@...  +..++#@@@##+..",
"  $.. @@#@@@@@## .. ..+$$++@###..$...##@@#@@+@@...",
"$$ .. ##@###@@## ++..%&%.###++@@@.  +@@@@@##@@@+..",
"$$ .. ##@###@@## ++%%**%.###++@==.  +@@@@@##@@@+..",
"##.  #@@...+####..%----%.@@+%%;*-&..###@@@@@#@@#++",
"##.  #@@...+####%%--*-*-%@=&*-----%.###@@@@@#@@#++",
"@@###@  .++.##@=*---***-=;*-*---*-*;+++##@##@@@@##",
"##@.. ..$...+&;---*-*-*--*----*-*---;++@@@##@##@##",
"##@.. ..$..%&*---******-----*-****--*&+@@@##@##@##",
"@@#...  . >*-*--**,**,,*---******,-***=##@@@#@@#@@",
"@@.  .  $ >****-*,,,*,'*-****,**,,****%  .##@##@@@",
"@@.  .  $  &*,***,*,,,'******,*,,,*,*%.  .##@##@@@",
"..#.....+  .&,*,*,,',,'***,**,,,',,,%$$..+++#@@#@@",
".. ##.$$.$$&;,,,,','''',**,*,,,,'',&.  +++..@@@@##",
".. ##.$$.$)--,,,,''''!',,,,,,','','&.  +++..@@@@##",
"  .@@#.. +&--,,'''!''!!',,',''''!!'->)$.. ..+@@#++",
"..   @++.+&*-'!',!!!'!!','''!'''!!!---%++.##@##+++",
"..   @++.+&**'!'!!!!!!!'''!'!'!!!!!*--*&+.##@##+++",
"..+..#@@#@@&==!!!!~~~!~!!'!!!!!!!!,*-**&+#$$.##+..",
"..+..#@@#@@+@@;!!~~~~~~!!!!!~!!~~!,,**%++#$$.##+..",
"++.+++@@@###$$ >~~~~>>>)!!!~~~~~%~,,,> +++.. ++@..",
"@@#@@#@@#@@ ..++%&&&..$.%~~~~~>%.>==&..##.  $++@@@",
"@@#@@#@@#@@ ..++.+++..$..>>~~) .. @@+..##.  $++@@@",
"@@+##@@@#@@$....+$$$++.$$  )> .  .##@@@@@$++.++###",
"...  .##@##.  $$ ..#@@$  .. ...+++@@#@@++.+++##@  ",
"...  .##@##.  $$ ..#@@$  .. ...+++@@#@@++.+++##@  ",
"$$   ...#@@+..  ...@##+++...  .++.##@@@##@##@@@$..",
"..$.. ++@###++..+##@@@###+++..+..+@@@####@@@#@@.  ",
"..$.. ++@###++..+##@@@###+++..+..+@@@####@@@#@@.  "};
