/* XPM */
static char * wall_xpm[] = {
"50 50 562 2",
"  	c #030408",
". 	c #272623",
"+ 	c #000003",
"@ 	c #000004",
"# 	c #030407",
"$ 	c #000005",
"% 	c #0A0C13",
"& 	c #030409",
"* 	c #1D1D20",
"= 	c #06070D",
"- 	c #0A0C11",
"; 	c #03040A",
"> 	c #03040B",
", 	c #2F2C1E",
"' 	c #06070C",
") 	c #716C47",
"! 	c #525148",
"~ 	c #6A6441",
"{ 	c #696340",
"] 	c #56564C",
"^ 	c #76704A",
"/ 	c #65645A",
"( 	c #66655B",
"_ 	c #646359",
": 	c #68685D",
"< 	c #60605D",
"[ 	c #03040D",
"} 	c #62615A",
"| 	c #7E7951",
"1 	c #8A845C",
"2 	c #66645B",
"3 	c #6C6B61",
"4 	c #7B764F",
"5 	c #4A4B48",
"6 	c #6B664A",
"7 	c #474745",
"8 	c #55544B",
"9 	c #434440",
"0 	c #52514A",
"a 	c #3C3C3A",
"b 	c #2D313B",
"c 	c #46484B",
"d 	c #5C5D59",
"e 	c #303540",
"f 	c #79764A",
"g 	c #7A784B",
"h 	c #5A5C4F",
"i 	c #53564A",
"j 	c #4B4E41",
"k 	c #5D5D3F",
"l 	c #484A3F",
"m 	c #505346",
"n 	c #56574B",
"o 	c #6A6D5D",
"p 	c #474D45",
"q 	c #03040C",
"r 	c #605E51",
"s 	c #46494F",
"t 	c #555652",
"u 	c #494A4A",
"v 	c #3D4146",
"w 	c #565653",
"x 	c #121622",
"y 	c #494943",
"z 	c #515147",
"A 	c #434441",
"B 	c #292D37",
"C 	c #383A3C",
"D 	c #454643",
"E 	c #51514F",
"F 	c #3B3F43",
"G 	c #3A4048",
"H 	c #000006",
"I 	c #706D44",
"J 	c #515443",
"K 	c #464A44",
"L 	c #434741",
"M 	c #4D4E3E",
"N 	c #1C2229",
"O 	c #272C2D",
"P 	c #383C36",
"Q 	c #333939",
"R 	c #474B45",
"S 	c #0A1521",
"T 	c #545552",
"U 	c #4F504C",
"V 	c #4D4E4B",
"W 	c #404449",
"X 	c #181E2D",
"Y 	c #67613D",
"Z 	c #606056",
"` 	c #272B34",
" .	c #353533",
"..	c #2B2F39",
"+.	c #424240",
"@.	c #22262E",
"#.	c #383835",
"$.	c #40403D",
"%.	c #232731",
"&.	c #5A5731",
"*.	c #343832",
"=.	c #242829",
"-.	c #363A35",
";.	c #24282A",
">.	c #363A34",
",.	c #313634",
"'.	c #3E413D",
").	c #333632",
"!.	c #2F3638",
"~.	c #20292F",
"{.	c #121418",
"].	c #3F3F3C",
"^.	c #4B4C4A",
"/.	c #3D4044",
"(.	c #4B4C49",
"_.	c #5B5A4C",
":.	c #45484A",
"<.	c #2B2F3A",
"[.	c #2E3035",
"}.	c #464744",
"|.	c #2A2F39",
"1.	c #4C4D4A",
"2.	c #282D36",
"3.	c #434442",
"4.	c #070910",
"5.	c #65633D",
"6.	c #585B4D",
"7.	c #2D3231",
"8.	c #20262D",
"9.	c #3A3D37",
"0.	c #2E3538",
"a.	c #494E46",
"b.	c #40433D",
"c.	c #111A1C",
"d.	c #12141A",
"e.	c #414343",
"f.	c #2D3034",
"g.	c #494B48",
"h.	c #535450",
"i.	c #373A3F",
"j.	c #353736",
"k.	c #2A3039",
"l.	c #40413E",
"m.	c #3A3B39",
"n.	c #3A3A38",
"o.	c #292E38",
"p.	c #464644",
"q.	c #414240",
"r.	c #04060C",
"s.	c #41443F",
"t.	c #282E30",
"u.	c #222A31",
"v.	c #27323A",
"w.	c #1A2026",
"x.	c #263139",
"y.	c #3D423F",
"z.	c #2A302E",
"A.	c #0A0F18",
"B.	c #1D1D1D",
"C.	c #181B25",
"D.	c #36383A",
"E.	c #3D3E3C",
"F.	c #343942",
"G.	c #4F504D",
"H.	c #444442",
"I.	c #080B13",
"J.	c #49473A",
"K.	c #1F222A",
"L.	c #22272E",
"M.	c #121723",
"N.	c #1F2327",
"O.	c #090D16",
"P.	c #151A27",
"Q.	c #151A28",
"R.	c #090A11",
"S.	c #46483F",
"T.	c #44473F",
"U.	c #2A3032",
"V.	c #434640",
"W.	c #172226",
"X.	c #1C2228",
"Y.	c #474C45",
"Z.	c #414743",
"`.	c #1B2227",
" +	c #111521",
".+	c #020408",
"++	c #101520",
"@+	c #131724",
"#+	c #090D15",
"$+	c #111724",
"%+	c #30322E",
"&+	c #12161C",
"*+	c #0A121C",
"=+	c #1D2327",
"-+	c #0A0F19",
";+	c #0A0E16",
">+	c #64645A",
",+	c #726D47",
"'+	c #6A6540",
")+	c #706945",
"!+	c #525350",
"~+	c #06070E",
"{+	c #67675C",
"]+	c #53514A",
"^+	c #6D6743",
"/+	c #6B6957",
"(+	c #87825F",
"_+	c #817B53",
":+	c #676453",
"<+	c #6C6742",
"[+	c #535248",
"}+	c #878159",
"|+	c #747368",
"1+	c #5A584A",
"2+	c #50514E",
"3+	c #5A584B",
"4+	c #555653",
"5+	c #383D46",
"6+	c #404B45",
"7+	c #636543",
"8+	c #626542",
"9+	c #555E59",
"0+	c #515951",
"a+	c #434A34",
"b+	c #2C3732",
"c+	c #5F6240",
"d+	c #5D5F3E",
"e+	c #474E47",
"f+	c #5A5B3B",
"g+	c #474F4A",
"h+	c #47504B",
"i+	c #313B3C",
"j+	c #605C42",
"k+	c #21242C",
"l+	c #4C4C47",
"m+	c #6A695E",
"n+	c #494A47",
"o+	c #585750",
"p+	c #373836",
"q+	c #464641",
"r+	c #484946",
"s+	c #363A3F",
"t+	c #434545",
"u+	c #323841",
"v+	c #676B46",
"w+	c #555D4D",
"x+	c #414A49",
"y+	c #354140",
"z+	c #364141",
"A+	c #121E2C",
"B+	c #232E33",
"C+	c #333E3F",
"D+	c #444B41",
"E+	c #34403F",
"F+	c #2A373C",
"G+	c #122334",
"H+	c #2F3D41",
"I+	c #121F2E",
"J+	c #6B6641",
"K+	c #3F403D",
"L+	c #37393B",
"M+	c #2A2E39",
"N+	c #38393B",
"O+	c #3F3F3D",
"P+	c #2B2D31",
"Q+	c #1D2028",
"R+	c #2D3035",
"S+	c #22252E",
"T+	c #565837",
"U+	c #323D3E",
"V+	c #121924",
"W+	c #2D3536",
"X+	c #1D252E",
"Y+	c #354141",
"Z+	c #121823",
"`+	c #12202F",
" @	c #313B3D",
".@	c #303A3A",
"+@	c #394445",
"@@	c #0A0C19",
"#@	c #6E6944",
"$@	c #444440",
"%@	c #232730",
"&@	c #2C2D30",
"*@	c #5B5B51",
"=@	c #34373D",
"-@	c #27292C",
";@	c #323436",
">@	c #2F3133",
",@	c #40403E",
"'@	c #252A33",
")@	c #3E3E3D",
"!@	c #3B3C3A",
"~@	c #0B0F18",
"{@	c #616441",
"]@	c #27333B",
"^@	c #384444",
"/@	c #323D3D",
"(@	c #30393A",
"_@	c #121C28",
":@	c #1D252B",
"<@	c #1D2833",
"[@	c #122233",
"}@	c #1D282E",
"|@	c #0A0C18",
"1@	c #53534A",
"2@	c #242731",
"3@	c #434444",
"4@	c #383C40",
"5@	c #3D3F40",
"6@	c #4E4F4C",
"7@	c #474845",
"8@	c #2E3135",
"9@	c #3C3D3A",
"0@	c #22262F",
"a@	c #303238",
"b@	c #2D2D30",
"c@	c #161922",
"d@	c #434943",
"e@	c #3B4441",
"f@	c #3D4849",
"g@	c #1D2933",
"h@	c #273439",
"i@	c #2E3637",
"j@	c #20292E",
"k@	c #1D2A35",
"l@	c #374243",
"m@	c #122232",
"n@	c #1F272D",
"o@	c #4D4E46",
"p@	c #2D2F33",
"q@	c #2C303A",
"r@	c #444543",
"s@	c #1E2129",
"t@	c #040810",
"u@	c #0D121D",
"v@	c #0B0E16",
"w@	c #464A34",
"x@	c #283031",
"y@	c #364142",
"z@	c #384343",
"A@	c #122031",
"B@	c #323C3D",
"C@	c #2E3838",
"D@	c #323B3D",
"E@	c #122231",
"F@	c #263236",
"G@	c #393936",
"H@	c #10151F",
"I@	c #050912",
"J@	c #141825",
"K@	c #2D303B",
"L@	c #131B2A",
"M@	c #0F121C",
"N@	c #06090F",
"O@	c #1F2024",
"P@	c #2F2C20",
"Q@	c #121A26",
"R@	c #0A0C16",
"S@	c #0A0C14",
"T@	c #060714",
"U@	c #000000",
"V@	c #7B754F",
"W@	c #807B53",
"X@	c #7A744D",
"Y@	c #726D48",
"Z@	c #605F55",
"`@	c #505046",
" #	c #434340",
".#	c #6D6D62",
"+#	c #7A754D",
"@#	c #7A7757",
"##	c #69685D",
"$#	c #74715F",
"%#	c #4D4E4A",
"&#	c #74715E",
"*#	c #5A5A54",
"=#	c #393937",
"-#	c #2A2E38",
";#	c #45474A",
">#	c #54544A",
",#	c #262A33",
"'#	c #090D14",
")#	c #03060C",
"!#	c #7A754E",
"~#	c #6E6D5A",
"{#	c #717166",
"]#	c #464745",
"^#	c #5A5B50",
"/#	c #65635A",
"(#	c #79786D",
"_#	c #6D6843",
":#	c #67665B",
"<#	c #585955",
"[#	c #5A542E",
"}#	c #5F5E54",
"|#	c #30343F",
"1#	c #333436",
"2#	c #1B1F29",
"3#	c #232733",
"4#	c #080A11",
"5#	c #07090F",
"6#	c #323740",
"7#	c #3E3F3D",
"8#	c #3E3E3C",
"9#	c #20242C",
"0#	c #171A20",
"a#	c #625E39",
"b#	c #55544A",
"c#	c #565753",
"d#	c #6D6D61",
"e#	c #50504D",
"f#	c #32363B",
"g#	c #353638",
"h#	c #1A1E29",
"i#	c #868157",
"j#	c #454543",
"k#	c #4E4F4B",
"l#	c #41413F",
"m#	c #262A34",
"n#	c #090C13",
"o#	c #686247",
"p#	c #5A5A50",
"q#	c #5B5A50",
"r#	c #5E5D53",
"s#	c #373736",
"t#	c #242831",
"u#	c #303338",
"v#	c #04080F",
"w#	c #40413F",
"x#	c #605C43",
"y#	c #50504A",
"z#	c #1F232E",
"A#	c #353536",
"B#	c #6B6541",
"C#	c #2F343E",
"D#	c #3B3E43",
"E#	c #212735",
"F#	c #171D2B",
"G#	c #151B29",
"H#	c #202634",
"I#	c #101623",
"J#	c #080B12",
"K#	c #090C14",
"L#	c #5D5833",
"M#	c #343436",
"N#	c #141826",
"O#	c #2D323C",
"P#	c #353943",
"Q#	c #292C35",
"R#	c #121621",
"S#	c #424340",
"T#	c #31322E",
"U#	c #161B2A",
"V#	c #101521",
"W#	c #5A553D",
"X#	c #474844",
"Y#	c #1A1F2A",
"Z#	c #20232C",
"`#	c #262A36",
" $	c #57574D",
".$	c #5A584D",
"+$	c #6A6754",
"@$	c #7C774F",
"#$	c #504F48",
"$$	c #605F56",
"%$	c #54534A",
"&$	c #4E4E45",
"*$	c #56544B",
"=$	c #4D4D48",
"-$	c #77714C",
";$	c #4B4B49",
">$	c #32353A",
",$	c #10121C",
"'$	c #3C4043",
")$	c #565754",
"!$	c #2A2F38",
"~$	c #7D7850",
"{$	c #6D684A",
"]$	c #68675D",
"^$	c #605B38",
"/$	c #4C4D47",
"($	c #545345",
"_$	c #464741",
":$	c #414243",
"<$	c #2C2E32",
"[$	c #43433D",
"}$	c #34373C",
"|$	c #6A6541",
"1$	c #2C313B",
"2$	c #404141",
"3$	c #181D2D",
"4$	c #0D121C",
"5$	c #5A594F",
"6$	c #605F54",
"7$	c #3B3B3A",
"8$	c #40413D",
"9$	c #3A3D42",
"0$	c #494A46",
"a$	c #2F333D",
"b$	c #4A4B47",
"c$	c #22272F",
"d$	c #484948",
"e$	c #676247",
"f$	c #474843",
"g$	c #292C36",
"h$	c #333841",
"i$	c #151926",
"j$	c #151A29",
"k$	c #67623F",
"l$	c #676553",
"m$	c #494946",
"n$	c #383A40",
"o$	c #313234",
"p$	c #2F343D",
"q$	c #3B3B39",
"r$	c #252933",
"s$	c #313335",
"t$	c #2C2E33",
"u$	c #464747",
"v$	c #252A35",
"w$	c #5F5936",
"x$	c #161B29",
"y$	c #33363C",
"z$	c #3C3E3F",
"A$	c #2E323D",
"B$	c #393A38",
"C$	c #222730",
"D$	c #464746",
"E$	c #323741",
"F$	c #363B44",
"G$	c #76714B",
"H$	c #131723",
"I$	c #1A1F29",
"J$	c #3D3E3A",
"K$	c #3A404A",
"L$	c #5A5950",
"M$	c #3D4145",
"N$	c #454646",
"O$	c #222731",
"P$	c #1F222D",
"Q$	c #141720",
"R$	c #383836",
"S$	c #393938",
"T$	c #2E333D",
"U$	c #111825",
"V$	c #494944",
"W$	c #2D323D",
"X$	c #50514D",
"Y$	c #282C36",
"Z$	c #121521",
"`$	c #070A11",
" %	c #070A12",
".%	c #202327",
"+%	c #050911",
"@%	c #151A26",
"#%	c #02060C",
"$%	c #313540",
"%%	c #323942",
"&%	c #191E2E",
"*%	c #191F2F",
"=%	c #10141F",
"    . + + @ # # $ % % % . . + + + + + & * * + & & + + + + + = + + & - - + + + ; ; > + + , + + # ' ' ",
"    . + + @ # # $ % % % . . + + + + + & * * + & & + + + + + = + + & - - + + + ; ; > + + , + + # ' ' ",
") ) ! ~ ~ { ] ] ^ / / ( _ _ : : < [ [ # > > + + + @ @ + & & # + + > ; ; * } } | | 1 2 2 3 4 4 5 > > ",
"6 6 7 8 8 7 9 9 0 a a b c c d d e + + f g g h i i j j k l l m n n o p p q r r s s t u u v w w x + + ",
"6 6 7 8 8 7 9 9 0 a a b c c d d e + + f g g h i i j j k l l m n n o p p q r r s s t u u v w w x + + ",
"_ _ y z z A B B 9 C C D E E F F G H H I J J K L L M M N O O P Q Q R S S q t t T T G U U V W W X H H ",
"Y Y Z D D `  . ...+.+.@.#.#.$.$.%.# # &.*.*.=.-.-.;.;.>.,.,.'.).).!.~.~.{.].].7 7 ^././.$.(.(.b # # ",
"Y Y Z D D `  . ...+.+.@.#.#.$.$.%.# # &.*.*.=.-.-.;.;.>.,.,.'.).).!.~.~.{.].].7 7 ^././.$.(.(.b # # ",
"/ / _.:.:.<.[.[.}.|.|.1.2.2.3.3.4.    5.6.6.7.~.~.K K 8.9.9.0.a.a.b.c.c.d.e.e.f.f.g.h.h.i.j.j.k.& & ",
"~ ~ l.m.m.z n.n.9 7 7 o.p.p.q.q.r.' ' j s.s.t.s.s.u.u.v.w.w.x.y.y.z.A.A.B.C.C.D.D.E.F.F.G.H.H.I.+ + ",
"~ ~ l.m.m.z n.n.9 7 7 o.p.p.q.q.r.' ' j s.s.t.s.s.u.u.v.w.w.x.y.y.z.A.A.B.C.C.D.D.E.F.F.G.H.H.I.+ + ",
"J.J.K.L.L.M.M.M.N.O.O.P.Q.Q.R.R.P.+ + S.T.T.U.P P V.V.W.X.X.Y.Z.Z.`.' ' H  + +.+.+++@+@+O.#+#+$+H H ",
"& & ; ; ; + & & & & & + + + - - + + + %+N N &+*+*+- - =+-+-+' ;+;+' ' ' ' + + & & + + + & + + + + + ",
"& & ; ; ; + & & & & & + + + - - + + + %+N N &+*+*+- - =+-+-+' ;+;+' ' ' ' + + & & + + + & + + + + + ",
">+>+,+'+'+)+!+!++ ; ; + + + q q # ; ; $ - - ; + + + + + H H + ~+~+{+]+]+^+/+/+(+(+_+:+:+<+[+[+}+|+|+",
">+>+,+'+'+)+!+!++ ; ; + + + q q # ; ; $ - - ; + + + + + H H + ~+~+{+]+]+^+/+/+(+(+_+:+:+<+[+[+}+|+|+",
"1+1+2+3+3+4+5+5+# 6+6+7+8+8+9+9+0+a+a+b+c+c+d+e+e+f+f+g+h+h+i+. . j+[.[.k+l+l+m+m+n+o+o+p+q+q+D G.G.",
"r+r+s+t+t+E u+u+q v+v+w+x+x+y+y+z+A+A+B+C+C+D+E+E+F+F+G+H+H+I+& & J+K+K+L+M+M+r+r+r+N+N+O+P+P+9 ....",
"r+r+s+t+t+E u+u+q v+v+w+x+x+y+y+z+A+A+B+C+C+D+E+E+F+F+G+H+H+I+& & J+K+K+L+M+M+r+r+r+N+N+O+P+P+9 ....",
"Q+Q+L+R+R+D S+S++ T+T+U+V+V+W+W+X+Y+Y+Z+`+`+ @.@.@V+V++@I+I+@@+ + #@$@$@%@&@&@*@*@=@A A -@;@;@>@,@,@",
"'@'@)@9 9 !@~@~@+ {@{@]@^@^@/@/@(@_@_@:@y+y+<@X+X+^@^@[@}@}@|@+ + 1@2@2@3@4@4@5@5@6@b b 7@8@8@9@0@0@",
"'@'@)@9 9 !@~@~@+ {@{@]@^@^@/@/@(@_@_@:@y+y+<@X+X+^@^@[@}@}@|@+ + 1@2@2@3@4@4@5@5@6@b b 7@8@8@9@0@0@",
"n.n.a@b@b@c@.+.++ d@d@e@C+C+f@f@g@h@h@i@A+A+j@k@k@l@l@m@n@n@@@+ + o@p@p@q@r+r+2@2@7@T T 0@r@r@s@$.$.",
"t@t@ +u@u@v@++++@ w@w@x@U+U+y@y@z@A@A@B@C@C@A+D@D@A+A+E@F@F@' + + G@x x H@I@I@J@J@K@L@L@O.M@M@N@O@O@",
"t@t@ +u@u@v@++++@ w@w@x@U+U+y@y@z@A@A@B@C@C@A+D@D@A+A+E@F@F@' + + G@x x H@I@I@J@J@K@L@L@O.M@M@N@O@O@",
"+ + = & & P@+ + + Q@Q@{.' ' ' ' - R@R@S@' ' - T@T@S@S@' ' ' ' @ @ + U@U@U@U@U@U@U@+ U@U@' + + + S@S@",
"+ + = & & P@+ + + Q@Q@{.' ' ' ' - R@R@S@' ' - T@T@S@S@' ' ' ' @ @ + U@U@U@U@U@U@U@+ U@U@' + + + S@S@",
"V@V@W@X@X@Y@m+m+Z@`@`@V ' ' ' ' + ' ' U@' ' + U@U@B.B. #e.e.H + + + + + + U@U@U@U@U@+ + U@.#.#+#@#@#",
"####$#%#%#&#*#*#: =#=#-#U@U@; ; + + + ; + + + U@U@$.$.q@;#;#+ + + >#,#,#+ '#'#)#)#' U@U@. !#!#~#{#{#",
"####$#%#%#&#*#*#: =#=#-#U@U@; ; + + + ; + + + U@U@$.$.q@;#;#+ + + >#,#,#+ '#'#)#)#' U@U@. !#!#~#{#{#",
"4 4 ]#^#^#o+/#/#7 a a '@+ + U@U@U@+ + + + + U@B.B.l.l.& {.{.(#Z Z A r+r+9 ' ' + + - U@U@U@_#_#:#<#<#",
"[#[#}#3@3@|#1#1#q.2#2#3#+ + + + + 4#4#5#U@U@+ U@U@+ + + 6#6#n+n.n.7#8#8#-#9#9#U@U@0# + +- a#a#$@}#}#",
"[#[#}#3@3@|#1#1#q.2#2#3#+ + + + + 4#4#5#U@U@+ U@U@+ + + 6#6#n+n.n.7#8#8#-#9#9#U@U@0# + +- a#a#$@}#}#",
"b#b#c#d#d#e#3.3.f#g#g#h#U@U@+ + & # # ' U@U@U@B.B./ / i#-#-#j#k#k#'@l#l#D -#-#+ + m#n#n#U@o#o#p#q#q#",
"r#r#: s#s#n+t#t#]#u#u#v#+ + w#w#l##+#++ U@U@+ x#x#y#y#_. + +` m.m.a@A A 6#z#z#A#A#- {.{.+ B#B#3.G.G.",
"r#r#: s#s#n+t#t#]#u#u#v#+ + w#w#l##+#++ U@U@+ x#x#y#y#_. + +` m.m.a@A A 6#z#z#A#A#- {.{.+ B#B#3.G.G.",
"}.}.C#D#D#E#F#F#G#H#H#I#B.B.J#J#4#K#K#+ L#L##@3.3.r+r+M#k+k+N#+.+.O#P#P#Q#R#R#S#S#@++ + + T#T#U#V#V#",
"# # H + + & & & . + + & U@U@U@U@' . . W#X#X#V 2+2+n.n.m.l#l#Y#Z#Z#2+G.G.`#M@M@M.M.+ , , @ + + + + + ",
"# # H + + & & & . + + & U@U@U@U@' . . W#X#X#V 2+2+n.n.m.l#l#Y#Z#Z#2+G.G.`#M@M@M.M.+ , , @ + + + + + ",
" $ $.$+#+#+$@$@$Z #$#$$$%$%$&$&$*$=$=$+ -$-$F.W W ;$;$>$x x ,$'$'$c#)$)$!$; ; X@X@^ ~$~${$Z@Z@]$^$^$",
" $ $.$+#+#+$@$@$Z #$#$$$%$%$&$&$*$=$=$+ -$-$F.W W ;$;$>$x x ,$'$'$c#)$)$!$; ; X@X@^ ~$~${$Z@Z@]$^$^$",
"/$/$6@($($h.h.h.6#_$_$:$l.l.<$<$[$}$}$$ |$|$n+w w 1$1$M.@.@.O#2$2$3$4$4$# U@U@5$5$r+h.h.6$5@5@7$8$8$",
"9$9$1.F F 0$a$a$b$c$c$m#7#7#^.^.d$x x + # # e$f$f$g$g$M.h$h$i$j$j$& + + + + + k$k$l$m$m$5 K+K+'@n$n$",
"9$9$1.F F 0$a$a$b$c$c$m#7#7#^.^.d$x x + # # e$f$f$g$g$M.h$h$i$j$j$& + + + + + k$k$l$m$m$5 K+K+'@n$n$",
"o$o$p$7 7 |.q$q$r$s$s$'@t$t$u$u$G.v$v$@ + + w$r+r+K.K.e#x$x$* + + + + + U@& & _#_#l#-#-#n.y$y$]#z$z$",
"A$A$7 t#t#S#S+S+B$C$C$D$E$E$d$d$F$Q.Q.- # # + G$G$H$H$I$H H # J$J$e#K$K$# # # L$L$m$H.H.}.M$M$N$>$>$",
"A$A$7 t#t#S#S+S+B$C$C$D$E$E$d$d$F$Q.Q.- # # + G$G$H$H$I$H H # J$J$e#K$K$# # # L$L$m$H.H.}.M$M$N$>$>$",
"O$O$P$Q$Q$O+R$R$S$%@%@;$0$0$D D s+G#G#U@U@U@U@F#F#& & U@# # + T$T$O#U$U$- $ $ #$#$V$W$W$%#X$X$Y$a$a$",
"Z$Z$h#`$`$`$5#5#O. % %.%+%+%Z$Z$@%#%#%& U@U@U@U@U@+ + # & & + I@I@O.+ + + + + $.$.$%%%%%&%*%*%=%#+#+",
"Z$Z$h#`$`$`$5#5#O. % %.%+%+%Z$Z$@%#%#%& U@U@U@U@U@+ + # & & + I@I@O.+ + + + + $.$.$%%%%%&%*%*%=%#+#+"};
